0
SECTION
2
HEADER
9
$INSUNITS
70
4
9
$ACADVER
1
AC1014
9
$HANDSEED
5
FFFF
0
ENDSEC
0
SECTION
2
TABLES
0
TABLE
2
VPORT
5
8
100
AcDbSymbolTable
0
ENDTAB
0
TABLE
2
LTYPE
5
5
100
AcDbSymbolTable
0
LTYPE
5
14
100
AcDbSymbolTableRecord
100
AcDbLinetypeTableRecord
2
BYBLOCK
70
0
0
LTYPE
5
15
100
AcDbSymbolTableRecord
100
AcDbLinetypeTableRecord
2
BYLAYER
70
0
0
ENDTAB
0
TABLE
2
LAYER
5
2
100
AcDbSymbolTable
70
2
0
LAYER
5
50
100
AcDbSymbolTableRecord
100
AcDbLayerTableRecord
2
0
70
0
6
CONTINUOUS
0
ENDTAB
0
TABLE
2
STYLE
5
3
100
AcDbSymbolTable
70
1
0
STYLE
5
11
100
AcDbSymbolTableRecord
100
AcDbTextStyleTableRecord
2
STANDARD
70
0
0
ENDTAB
0
TABLE
2
VIEW
5
6
100
AcDbSymbolTable
70
0
0
ENDTAB
0
TABLE
2
UCS
5
7
100
AcDbSymbolTable
70
0
0
ENDTAB
0
TABLE
2
APPID
5
9
100
AcDbSymbolTable
70
2
0
APPID
5
12
100
AcDbSymbolTableRecord
100
AcDbRegAppTableRecord
2
ACAD
70
0
0
ENDTAB
0
TABLE
2
DIMSTYLE
5
A
100
AcDbSymbolTable
70
1
0
ENDTAB
0
TABLE
2
BLOCK_RECORD
5
1
100
AcDbSymbolTable
70
1
0
BLOCK_RECORD
5
1F
100
AcDbSymbolTableRecord
100
AcDbBlockTableRecord
2
*MODEL_SPACE
0
BLOCK_RECORD
5
1B
100
AcDbSymbolTableRecord
100
AcDbBlockTableRecord
2
*PAPER_SPACE
0
ENDTAB
0
ENDSEC
0
SECTION
2
BLOCKS
0
BLOCK
5
20
100
AcDbEntity
100
AcDbBlockBegin
2
*MODEL_SPACE
0
ENDBLK
5
21
100
AcDbEntity
100
AcDbBlockEnd
0
BLOCK
5
1C
100
AcDbEntity
100
AcDbBlockBegin
2
*PAPER_SPACE
0
ENDBLK
5
1D
100
AcDbEntity
100
AcDbBlockEnd
0
ENDSEC
0
SECTION
2
ENTITIES
0
CIRCLE
5
100
100
AcDbEntity
8
0
100
AcDbCircle
10
1.3322676295501878e-14
20
196.65419782187166
30
0
40
20.999999999999996
210
0
220
-0
230
1
0
SPLINE
5
101
100
AcDbEntity
8
0
100
AcDbSpline
70
4
71
5
72
31
73
25
74
0
42
0.000000001
43
0.0000000001
44
0.0000000001
40
-1
40
-1
40
-1
40
-1
40
-1
40
-1
40
-0.95000000000000029
40
-0.90000000000000024
40
-0.8500000000000002
40
-0.80000000000000016
40
-0.75000000000000011
40
-0.70000000000000007
40
-0.65000000000000002
40
-0.59999999999999998
40
-0.54999999999999993
40
-0.49999999999999994
40
-0.44999999999999996
40
-0.39999999999999997
40
-0.34999999999999998
40
-0.29999999999999999
40
-0.25
40
-0.20000000000000001
40
-0.15000000000000002
40
-0.10000000000000001
40
-0.050000000000000003
40
0
40
0
40
0
40
0
40
0
40
0
41
1
41
1
41
1
41
1
41
1
41
1
41
1
41
1
41
1
41
1
41
1
41
1
41
1
41
1
41
1
41
1
41
1
41
1
41
1
41
1
41
1
41
1
41
1
41
1
41
1
10
75.000000998377786
20
-225.00000335276127
30
0
10
75.000000998377786
20
-225.76252793787899
30
0
10
74.913228825406492
20
-227.24439054966831
30
0
10
74.522759064891133
20
-229.33762461332816
30
0
10
73.513830593012528
20
-231.86994342640375
30
0
10
71.610907457688967
20
-234.6142447140337
30
0
10
69.260314087833223
20
-236.96342125103573
30
0
10
66.610891477661895
20
-238.9668134268922
30
0
10
63.695666083817379
20
-240.70576916665186
30
0
10
60.471773133837409
20
-242.27592803174443
30
0
10
56.865230211876145
20
-243.76798451416303
30
0
10
52.809809972646661
20
-245.2511989993011
30
0
10
48.297800763982231
20
-246.75077171248148
30
0
10
43.386865627286554
20
-248.24851152660645
30
0
10
38.17606947360612
20
-249.70008729550827
30
0
10
32.79230348853401
20
-251.04668027109273
30
0
10
27.3728955903456
20
-252.22923424613003
30
0
10
22.051366866911479
20
-253.20031965368241
30
0
10
16.939479228440085
20
-253.94047729449608
30
0
10
12.119181001583449
20
-254.46212974604458
30
0
10
7.6492539724816062
20
-254.79437831381532
30
0
10
4.384152669823786
20
-254.93712496438263
30
0
10
2.1196574656115117
20
-254.98856860677159
30
0
10
0.69275817478908486
20
-255.0000003760486
30
0
10
-1.1920929687825321e-07
20
-255
30
0
0
LINE
5
102
100
AcDbEntity
8
0
100
AcDbLine
10
75.000000998377786
20
-225.00000335276127
30
0
11
76.875248709282559
21
-85.839561961271727
31
0
0
SPLINE
5
103
100
AcDbEntity
8
0
100
AcDbSpline
70
4
71
5
72
31
73
25
74
0
42
0.000000001
43
0.0000000001
44
0.0000000001
40
0
40
0
40
0
40
0
40
0
40
0
40
0.050000000000000003
40
0.10000000000000001
40
0.15000000000000002
40
0.20000000000000001
40
0.25
40
0.29999999999999999
40
0.34999999999999998
40
0.39999999999999997
40
0.44999999999999996
40
0.49999999999999994
40
0.54999999999999993
40
0.59999999999999998
40
0.65000000000000002
40
0.70000000000000007
40
0.75000000000000011
40
0.80000000000000016
40
0.8500000000000002
40
0.90000000000000024
40
0.95000000000000029
40
1
40
1
40
1
40
1
40
1
40
1
41
1
41
1
41
1
41
1
41
1
41
1
41
1
41
1
41
1
41
1
41
1
41
1
41
1
41
1
41
1
41
1
41
1
41
1
41
1
41
1
41
1
41
1
41
1
41
1
41
1
10
120.15977470113916
20
48.179769511293728
30
0
10
120.15080928085274
20
47.474730451600742
30
0
10
120.08098606372634
20
46.083859822190156
30
0
10
119.82058375458598
20
44.055260219525067
30
0
10
119.16069171915916
20
41.465618304043616
30
0
10
117.80401385495509
20
38.352818708380838
30
0
10
115.89499864622981
20
35.141456069110404
30
0
10
113.40667090327909
20
31.414309331534795
30
0
10
110.33190683051201
20
26.713296019431368
30
0
10
106.70609184495493
20
20.660109698178722
30
0
10
102.63450474810105
20
13.099230141292981
30
0
10
98.313501406556725
20
4.213575797570666
30
0
10
93.988898358764388
20
-5.5955806246138673
30
0
10
89.920990071319977
20
-15.804303894298377
30
0
10
86.346534637703797
20
-25.869465053633721
30
0
10
83.443851636797547
20
-35.322626708910377
30
0
10
81.290094876598701
20
-43.879968391412341
30
0
10
79.832045610798758
20
-51.521917567003925
30
0
10
78.811710530134022
20
-58.668373555760638
30
0
10
78.077632215688567
20
-65.557011640499155
30
0
10
77.531779992291973
20
-72.341822701230754
30
0
10
77.207696530700304
20
-77.744103359042199
30
0
10
77.019990131071566
20
-81.793003174750822
30
0
10
76.919405603406346
20
-84.490928797405388
30
0
10
76.875248709282573
20
-85.839561961271727
30
0
0
LINE
5
104
100
AcDbEntity
8
0
100
AcDbLine
10
120.15977470113916
20
48.179769511293728
30
0
11
120.15977470113916
21
98.416276343953655
31
0
0
ARC
5
105
100
AcDbEntity
8
0
100
AcDbCircle
10
85.159774701139241
20
98.416276343953683
30
0
40
34.999999999999915
210
0
220
0
230
1
100
AcDbArc
50
0
51
64.011907478405746
0
ARC
5
106
100
AcDbEntity
8
0
100
AcDbCircle
10
130.58661344194121
20
191.60424689233437
30
0
40
68.67061074821882
210
0
220
0
230
1
100
AcDbArc
50
172.8012519471325
51
244.01190747840559
0
ARC
5
107
100
AcDbEntity
8
0
100
AcDbCircle
10
-1.1920931797249068e-07
20
196.65419782187161
30
0
40
62.558409898600054
210
0
220
-0
230
1
100
AcDbArc
50
3.257943803201079
51
90
0
ARC
5
108
100
AcDbEntity
8
0
100
AcDbCircle
10
1.3322676295501878e-14
20
196.65419782187166
30
0
40
62.558409898600011
210
0
220
0
230
1
100
AcDbArc
50
90.000000109181016
51
176.74205619679881
0
ARC
5
109
100
AcDbEntity
8
0
100
AcDbCircle
10
-130.5866135611505
20
191.60424689233434
30
0
40
68.670610748218792
210
0
220
0
230
1
100
AcDbArc
50
-64.011907478405575
51
7.1987480528675674
0
ARC
5
110
100
AcDbEntity
8
0
100
AcDbCircle
10
-85.159774820348531
20
98.416276343953655
30
0
40
34.999999999999964
210
0
220
0
230
1
100
AcDbArc
50
115.98809252159424
51
180
0
LINE
5
111
100
AcDbEntity
8
0
100
AcDbLine
10
-120.15977482034849
20
98.416276343953669
30
0
11
-120.15977482034845
21
48.179769511293742
31
0
0
SPLINE
5
112
100
AcDbEntity
8
0
100
AcDbSpline
70
4
71
5
72
31
73
25
74
0
42
0.000000001
43
0.0000000001
44
0.0000000001
40
0
40
0
40
0
40
0
40
0
40
0
40
0.050000000000000003
40
0.10000000000000001
40
0.15000000000000002
40
0.20000000000000001
40
0.25
40
0.29999999999999999
40
0.34999999999999998
40
0.39999999999999997
40
0.44999999999999996
40
0.49999999999999994
40
0.54999999999999993
40
0.59999999999999998
40
0.65000000000000002
40
0.70000000000000007
40
0.75000000000000011
40
0.80000000000000016
40
0.8500000000000002
40
0.90000000000000024
40
0.95000000000000029
40
1
40
1
40
1
40
1
40
1
40
1
41
1
41
1
41
1
41
1
41
1
41
1
41
1
41
1
41
1
41
1
41
1
41
1
41
1
41
1
41
1
41
1
41
1
41
1
41
1
41
1
41
1
41
1
41
1
41
1
41
1
10
-120.15977482034845
20
48.179769511293728
30
0
10
-120.15080940006203
20
47.474730451600742
30
0
10
-120.08098618293565
20
46.083859822190156
30
0
10
-119.82058387379527
20
44.055260219525067
30
0
10
-119.16069183836846
20
41.465618304043616
30
0
10
-117.80401397416439
20
38.352818708380838
30
0
10
-115.89499876543911
20
35.141456069110404
30
0
10
-113.40667102248838
20
31.414309331534795
30
0
10
-110.33190694972131
20
26.713296019431368
30
0
10
-106.70609196416423
20
20.660109698178722
30
0
10
-102.63450486731034
20
13.099230141292981
30
0
10
-98.313501525766029
20
4.213575797570666
30
0
10
-93.988898477973692
20
-5.5955806246138673
30
0
10
-89.920990190529281
20
-15.804303894298377
30
0
10
-86.346534756913101
20
-25.869465053633721
30
0
10
-83.44385175600685
20
-35.322626708910377
30
0
10
-81.290094995808005
20
-43.879968391412341
30
0
10
-79.832045730008062
20
-51.521917567003925
30
0
10
-78.811710649343325
20
-58.668373555760638
30
0
10
-78.077632334897856
20
-65.557011640499155
30
0
10
-77.531780111501277
20
-72.341822701230754
30
0
10
-77.207696649909607
20
-77.744103359042199
30
0
10
-77.01999025028087
20
-81.793003174750822
30
0
10
-76.919405722615636
20
-84.490928797405388
30
0
10
-76.875248828491877
20
-85.839561961271727
30
0
0
LINE
5
113
100
AcDbEntity
8
0
100
AcDbLine
10
-76.875248828491877
20
-85.839561961271727
30
0
11
-75.00000111758709
21
-225.00000335276127
31
0
0
SPLINE
5
114
100
AcDbEntity
8
0
100
AcDbSpline
70
4
71
5
72
31
73
25
74
0
42
0.000000001
43
0.0000000001
44
0.0000000001
40
-1
40
-1
40
-1
40
-1
40
-1
40
-1
40
-0.95000000000000029
40
-0.90000000000000024
40
-0.8500000000000002
40
-0.80000000000000016
40
-0.75000000000000011
40
-0.70000000000000007
40
-0.65000000000000002
40
-0.59999999999999998
40
-0.54999999999999993
40
-0.49999999999999994
40
-0.44999999999999996
40
-0.39999999999999997
40
-0.34999999999999998
40
-0.29999999999999999
40
-0.25
40
-0.20000000000000001
40
-0.15000000000000002
40
-0.10000000000000001
40
-0.050000000000000003
40
0
40
0
40
0
40
0
40
0
40
0
41
1
41
1
41
1
41
1
41
1
41
1
41
1
41
1
41
1
41
1
41
1
41
1
41
1
41
1
41
1
41
1
41
1
41
1
41
1
41
1
41
1
41
1
41
1
41
1
41
1
10
-75.00000111758709
20
-225.00000335276127
30
0
10
-75.00000111758709
20
-225.76252793787899
30
0
10
-74.913228944615796
20
-227.24439054966831
30
0
10
-74.522759184100437
20
-229.33762461332816
30
0
10
-73.513830712221832
20
-231.86994342640375
30
0
10
-71.610907576898256
20
-234.6142447140337
30
0
10
-69.260314207042512
20
-236.96342125103573
30
0
10
-66.610891596871198
20
-238.9668134268922
30
0
10
-63.695666203026676
20
-240.70576916665186
30
0
10
-60.471773253046706
20
-242.27592803174443
30
0
10
-56.865230331085442
20
-243.76798451416303
30
0
10
-52.809810091855958
20
-245.2511989993011
30
0
10
-48.297800883191535
20
-246.75077171248148
30
0
10
-43.386865746495857
20
-248.24851152660645
30
0
10
-38.176069592815416
20
-249.70008729550827
30
0
10
-32.792303607743307
20
-251.04668027109273
30
0
10
-27.372895709554896
20
-252.22923424613003
30
0
10
-22.051366986120776
20
-253.20031965368241
30
0
10
-16.939479347649382
20
-253.94047729449608
30
0
10
-12.119181120792746
20
-254.46212974604458
30
0
10
-7.6492540916909038
20
-254.79437831381532
30
0
10
-4.3841527890330836
20
-254.93712496438263
30
0
10
-2.1196575848208083
20
-254.98856860677159
30
0
10
-0.69275829399838174
20
-255.0000003760486
30
0
10
0
20
-255
30
0
0
LWPOLYLINE
5
115
100
AcDbEntity
8
0
100
AcDbPolyline
90
8
70
1
43
0.0
10
-61.000000908970833
20
-135.02593264707349
10
-61.000000908970826
20
-176.331002682209
42
-0.41421356237309503
10
-64.66900090897083
20
-180.00000268220901
10
-65.131951511254087
20
-180.00000268220901
42
-0.41421356237309503
10
-68.800951511254084
20
-176.331002682209
10
-68.800951511254084
20
-135.02593264707349
42
-0.41421356237309503
10
-65.131951511254101
20
-131.35693264707351
10
-64.669000908970844
20
-131.35693264707348
42
-0.41421356237309503
0
LWPOLYLINE
5
116
100
AcDbEntity
8
0
100
AcDbPolyline
90
8
70
1
43
0.0
10
-18.814611756553269
20
-241.98691235192953
10
-18.840201657447718
20
-242.08074198854248
42
-0.41421356237309465
10
-22.641721936332104
20
-244.2530392907621
10
-50.09092046830169
20
-236.7668942365886
42
-0.41421356237309648
10
-52.263217770521344
20
-232.96537395770423
10
-52.237627869626891
20
-232.87154432109128
42
-0.41421356237309531
10
-48.436107590742509
20
-230.69924701887163
10
-20.986909058772923
20
-238.18539207304514
42
-0.41421356237309698
0
LWPOLYLINE
5
117
100
AcDbEntity
8
0
100
AcDbPolyline
90
6
70
1
43
0.0
10
-95
20
101.23044136773873
10
-94.999999999999986
20
58.668352129006607
42
-0.4087199252989353
10
-98.600053226234152
20
55.000000000000007
42
-0.41421356237309503
10
-102.26905322623415
20
58.669000000000004
10
-102.26905322623416
20
101.22979349674536
42
-0.41421356237309503
10
-98.600053226234166
20
104.89879349674537
42
-0.40871992529894013
0
LWPOLYLINE
5
118
100
AcDbEntity
8
0
100
AcDbPolyline
90
6
70
1
43
0.0
10
94.999999880790696
20
58.668352129006607
10
94.999999880790696
20
101.23044136773873
42
-0.40871992529894019
10
98.600053107024877
20
104.89879349674533
42
-0.41421356237310214
10
102.26905310702486
20
101.22979349674536
10
102.26905310702485
20
58.669000000000004
42
-0.41421356237309648
10
98.600053107024848
20
55.000000000000007
42
-0.4087199252989388
0
LWPOLYLINE
5
119
100
AcDbEntity
8
0
100
AcDbPolyline
90
8
70
1
43
0.0
10
18.840201538238421
20
-242.08074198854248
10
18.814611637343965
20
-241.98691235192953
42
-0.41421356237309964
10
20.986908939563623
20
-238.18539207304514
10
48.436107471533205
20
-230.69924701887169
42
-0.41421356237309115
10
52.237627750417602
20
-232.87154432109128
10
52.26321765131204
20
-232.96537395770423
42
-0.41421356237309748
10
50.0909203490924
20
-236.7668942365886
10
22.641721817122793
20
-244.25303929076208
42
-0.41421356237309004
0
LWPOLYLINE
5
120
100
AcDbEntity
8
0
100
AcDbPolyline
90
8
70
1
43
0.0
10
61.000000789761529
20
-176.331002682209
10
61.000000789761543
20
-135.02593264707349
42
-0.41421356237309576
10
64.66900078976154
20
-131.35693264707351
10
65.131951392044797
20
-131.35693264707351
42
-0.41421356237309859
10
68.800951392044794
20
-135.02593264707349
10
68.800951392044766
20
-176.331002682209
42
-0.41421356237309293
10
65.131951392044783
20
-180.00000268220901
10
64.66900078976154
20
-180.00000268220901
42
-0.41421356237309293
0
ENDSEC
0
SECTION
2
OBJECTS
0
DICTIONARY
5
C
100
AcDbDictionary
3
ACAD_GROUP
350
D
3
ACAD_MLINESTYLE
350
17
0
DICTIONARY
5
D
100
AcDbDictionary
0
DICTIONARY
5
1A
330
C
100
AcDbDictionary
0
DICTIONARY
5
17
100
AcDbDictionary
0
ENDSEC
0
EOF
